<?xml version="1.0" standalone="no"?><!DOCTYPE svg PUBLIC "-//W3C//DTD SVG 1.1//EN" "http://www.w3.org/Graphics/SVG/1.1/DTD/svg11.dtd"><svg t="1779770796474" class="icon" viewBox="0 0 1024 1024" version="1.1" xmlns="http://www.w3.org/2000/svg" p-id="6193" xmlns:xlink="http://www.w3.org/1999/xlink" width="200" height="200"><path d="M638.336 541.888H405.504V499.2h26.24l62.72-111.36-62.72-111.296H306.24l-62.848 111.36 62.848 111.296h26.176v42.688H95.04C43.52 541.888 0 584.768 0 635.456V1024h678.336l51.2-74.88H73.152V635.456c0-9.28 11.072-18.688 21.888-18.688h543.296c10.432 0 19.968 8.96 19.968 18.688v238.848h73.152V635.456a93.44 93.44 0 0 0-93.12-93.568zM348.416 424.32l-20.48-36.48 20.48-36.416h41.152l20.48 36.48-20.48 36.416h-41.152z" p-id="6194"></path><path d="M402.56 782.336c0 52.16 41.472 94.592 92.416 94.592 50.944 0 92.416-42.432 92.416-94.592s-41.472-94.656-92.416-94.656c-50.944 0-92.416 42.496-92.416 94.656z m129.92 0a38.08 38.08 0 0 1-37.504 38.4 38.016 38.016 0 0 1-37.568-38.4c0-21.248 16.832-38.4 37.568-38.4 20.672 0 37.568 17.152 37.568 38.4zM1024 275.84V119.04C1024 82.176 990.528 51.2 950.848 51.2H512v306.752c0 39.488 38.272 66.176 74.624 66.944v89.472l135.552-89.472h246.4l55.296-74.88h-323.2l-40.96 27.008v-27.008H588.352a11.52 11.52 0 0 1-3.2-0.512v-223.36l365.76 0.768V275.84H1024z" p-id="6195"></path><path d="M914.304 163.328h-293.76v56.192h293.76v-56.192zM804.544 253.312H620.544v56.128h184v-56.128zM1024 349.888l-0.128 0.128H1024v-0.128zM146.88 782.336c0 52.16 41.472 94.592 92.416 94.592 50.944 0 92.352-42.432 92.352-94.592s-41.408-94.656-92.352-94.656-92.416 42.496-92.416 94.656z m129.92 0a38.016 38.016 0 0 1-37.504 38.4 38.08 38.08 0 0 1-37.568-38.4c0-21.248 16.832-38.4 37.568-38.4 20.736 0 37.504 17.152 37.504 38.4z" p-id="6196"></path></svg>